<svg width="64" height="64" viewBox="0 0 64 64" fill="none" xmlns="http://www.w3.org/2000/svg">
<path d="M45.4667 54.08C42.8533 56.6133 40 56.2133 37.2533 55.0133C34.3467 53.7867 31.68 53.7333 28.6133 55.0133C24.7733 56.6667 22.7467 56.1867 20.4533 54.08C7.44 40.6667 9.36 20.24 24.1333 19.4933C27.7333 19.68 30.24 21.4667 32.3467 21.6267C35.4933 20.9867 38.5067 19.1467 41.8667 19.3867C45.8933 19.7067 48.9333 21.3067 50.9333 24.1867C42.6133 29.1733 44.5867 40.1333 52.2133 43.2C50.6933 47.2 48.72 51.1733 45.44 54.1067L45.4667 54.08ZM32.08 19.3333C31.68 13.3867 36.5067 8.48 42.0533 8C42.8267 14.88 35.8133 20 32.08 19.3333Z" fill="black"/>
</svg>
