<svg width="64" height="64" viewBox="0 0 64 64" fill="none" xmlns="http://www.w3.org/2000/svg">
<path d="M45.3333 9.33335C45.3333 8.97973 45.1929 8.64059 44.9428 8.39054C44.6928 8.1405 44.3536 8.00002 44 8.00002H37.3333C33.9763 7.8328 30.6896 9.00106 28.1913 11.2496C25.6929 13.4981 24.1861 16.644 24 20V27.2H17.3333C16.9797 27.2 16.6406 27.3405 16.3905 27.5905C16.1405 27.8406 16 28.1797 16 28.5334V35.4667C16 35.8203 16.1405 36.1594 16.3905 36.4095C16.6406 36.6595 16.9797 36.8 17.3333 36.8H24V54.6667C24 55.0203 24.1405 55.3594 24.3905 55.6095C24.6406 55.8595 24.9797 56 25.3333 56H33.3333C33.687 56 34.0261 55.8595 34.2761 55.6095C34.5262 55.3594 34.6667 55.0203 34.6667 54.6667V36.8H41.6533C41.9498 36.8043 42.2393 36.7096 42.476 36.5309C42.7126 36.3522 42.8829 36.0997 42.96 35.8134L44.88 28.88C44.9331 28.683 44.9402 28.4765 44.9008 28.2763C44.8615 28.0761 44.7768 27.8876 44.6531 27.7253C44.5295 27.563 44.3702 27.4312 44.1876 27.3402C44.0051 27.2491 43.804 27.2012 43.6 27.2H34.6667V20C34.733 19.34 35.043 18.7283 35.5361 18.2845C36.0292 17.8408 36.67 17.5967 37.3333 17.6H44C44.3536 17.6 44.6928 17.4595 44.9428 17.2095C45.1929 16.9594 45.3333 16.6203 45.3333 16.2667V9.33335Z" fill="#231F20"/>
</svg>
