<svg width="64" height="64" viewBox="0 0 64 64" fill="none" xmlns="http://www.w3.org/2000/svg">
<path d="M46.6666 37.3335C45.886 40.0493 44.3387 42.4823 42.2104 44.3411C40.082 46.1999 37.4628 47.4055 34.6666 47.8135C32.4801 48.1307 30.2519 48.0028 28.116 47.4375C25.98 46.8722 23.9803 45.8812 22.2369 44.5238C20.4936 43.1664 19.0424 41.4708 17.9706 39.5387C16.8989 37.6066 16.2286 35.4778 16 33.2801C15.8229 31.0739 16.1055 28.8549 16.8299 26.7635C17.5543 24.672 18.7048 22.7536 20.2085 21.1295C21.7123 19.5055 23.5367 18.2111 25.5663 17.3282C27.5959 16.4453 29.7866 15.9931 32 16.0001C34.074 16.0031 36.1284 16.4013 38.0533 17.1735C38.3564 17.3096 38.6994 17.3276 39.0151 17.224C39.3308 17.1204 39.5964 16.9027 39.76 16.6135L43.6 9.54682C43.6826 9.38405 43.7323 9.20656 43.7462 9.02454C43.7601 8.84252 43.738 8.65954 43.681 8.48611C43.624 8.31268 43.5333 8.15221 43.4142 8.0139C43.295 7.87559 43.1497 7.76217 42.9866 7.68015C38.8632 5.81325 34.3325 5.02666 29.8211 5.39447C25.3097 5.76227 20.9661 7.27237 17.1996 9.78252C13.433 12.2927 10.3674 15.7203 8.29139 19.7425C6.21542 23.7647 5.19743 28.2492 5.33331 32.7735C5.5961 39.4932 8.35831 45.8727 13.0789 50.6623C17.7994 55.4519 24.1381 58.3065 30.8533 58.6668C37.8878 58.9788 44.7601 56.4958 49.9708 51.7598C55.1814 47.0237 58.3074 40.419 58.6666 33.3868C58.6666 32.8535 58.6666 29.7868 58.6666 28.0535C58.6598 27.702 58.5172 27.3668 58.2686 27.1182C58.02 26.8696 57.6848 26.727 57.3333 26.7201H33.3333C32.9797 26.7201 32.6406 26.8606 32.3905 27.1107C32.1405 27.3607 32 27.6999 32 28.0535V36.0535C32 36.4071 32.1405 36.7462 32.3905 36.9963C32.6406 37.2463 32.9797 37.3868 33.3333 37.3868H46.6666" fill="#231F20"/>
</svg>
